<mxfile host="app.diagrams.net" modified="2020-12-05T09:53:31.528Z" agent="5.0 (Windows NT 10.0; Win64; x64) AppleWebKit/537.36 (KHTML, like Gecko) Chrome/86.0.4240.198 Safari/537.36 OPR/72.0.3815.400 (Edition Campaign 34)" etag="2SwULlANHusC3px1affk" version="13.10.9" type="github">
  <diagram id="7WojDcvpjvajZ6NCQi6_" name="Page-1">
    <mxGraphModel dx="828" dy="493" grid="1" gridSize="10" guides="1" tooltips="1" connect="1" arrows="1" fold="1" page="1" pageScale="1" pageWidth="827" pageHeight="1169" math="0" shadow="0">
      <root>
        <mxCell id="0" />
        <mxCell id="1" parent="0" />
        <mxCell id="nWCSLWE94ARpHqTKVhg5-2" value="&lt;div style=&quot;box-sizing: border-box ; width: 100% ; padding: 2px&quot;&gt;&lt;span style=&quot;background-color: rgb(255 , 255 , 255)&quot;&gt;KULLANICI&lt;br&gt;&lt;/span&gt;&lt;table cellpadding=&quot;2&quot; cellspacing=&quot;0&quot; style=&quot;font-size: 1em ; width: 100%&quot;&gt;&lt;tbody&gt;&lt;tr&gt;&lt;td&gt;&lt;span style=&quot;background-color: rgb(255 , 255 , 255)&quot;&gt;PK&lt;/span&gt;&lt;/td&gt;&lt;td&gt;&lt;span style=&quot;background-color: rgb(255 , 255 , 255)&quot;&gt;Kullanıcı NO&lt;/span&gt;&lt;/td&gt;&lt;/tr&gt;&lt;tr&gt;&lt;td&gt;&lt;span style=&quot;background-color: rgb(255 , 255 , 255)&quot;&gt;FK1&lt;/span&gt;&lt;/td&gt;&lt;td&gt;&lt;span style=&quot;background-color: rgb(255 , 255 , 255)&quot;&gt;foreignKey&lt;/span&gt;&lt;/td&gt;&lt;/tr&gt;&lt;tr&gt;&lt;td&gt;&lt;/td&gt;&lt;td&gt;&lt;span style=&quot;background-color: rgb(255 , 255 , 255)&quot;&gt;e-posta&lt;br&gt;&lt;br&gt;&lt;br&gt;&lt;br&gt;&lt;br&gt;&lt;br&gt;&lt;br&gt;&lt;br&gt;&lt;br&gt;&lt;br&gt;&lt;/span&gt;&lt;/td&gt;&lt;/tr&gt;&lt;/tbody&gt;&lt;/table&gt;&lt;/div&gt;" style="verticalAlign=top;align=left;overflow=fill;html=1;" vertex="1" parent="1">
          <mxGeometry x="60" y="40" width="180" height="90" as="geometry" />
        </mxCell>
      </root>
    </mxGraphModel>
  </diagram>
</mxfile>
